<svg width="97" height="51" viewBox="0 0 97 51" fill="none" xmlns="http://www.w3.org/2000/svg">
<path d="M97 0.186096L65.5716 41.7526L63.8937 43.9706L61.9216 46.5854L61.7278 46.6037L52.1805 35.2375L53.8861 32.9687L66.9683 15.6462L97 0.186096Z" fill="url(#paint0_linear)"/>
<g style="mix-blend-mode:multiply" opacity="0.16">
<g style="mix-blend-mode:multiply" opacity="0.16">
<path d="M65.5716 41.7526L61.9216 46.5847L61.7278 46.603L52.1805 35.2375L53.8853 32.9688C56.8534 35.1833 61.8507 38.9386 65.5716 41.7526Z" fill="url(#paint1_linear)"/>
</g>
</g>
<path d="M45.151 26.8755L61.7274 46.6002L44.2744 48.3855L36.1489 38.7164L45.151 26.8755Z" fill="url(#paint2_linear)"/>
<g style="mix-blend-mode:screen" opacity="0.3">
<g style="mix-blend-mode:screen" opacity="0.3">
<path d="M96.9992 0.186096L65.5708 41.7526L63.893 43.9706C63.1834 44.851 62.4548 45.7314 61.7296 46.603C63.0986 44.6255 64.4987 42.6587 65.9023 40.6927C67.2903 38.7233 68.7016 36.7635 70.1364 34.8136C73.0006 30.912 75.8173 26.9812 78.7326 23.0972C81.6168 19.2044 84.5563 15.3374 87.477 11.4615C89.8809 8.32453 92.2874 5.18663 94.6974 2.04783C93.087 2.8673 91.4792 3.67322 89.8472 4.47169L82.2554 8.23378C79.7286 9.49799 77.1903 10.7416 74.6404 11.9647C72.0929 13.2034 69.5454 14.4421 66.971 15.6489L96.9992 0.186096Z" fill="url(#paint3_linear)"/>
</g>
</g>
<g style="mix-blend-mode:screen" opacity="0.3">
<g style="mix-blend-mode:screen" opacity="0.3">
<path d="M45.1509 26.8755L60.3886 45.0081C60.5166 45.1875 60.6387 45.3608 60.7589 45.5444C60.0191 44.8163 59.3121 44.0714 58.5913 43.3244C57.8843 42.5795 57.1548 41.8345 56.4721 41.0794C55.7677 40.3242 55.0771 39.5711 54.3883 38.8072C53.7134 38.0459 53.0228 37.2928 52.3505 36.5208C51.004 34.9857 49.6772 33.4425 48.3699 31.8911C47.2761 30.6179 46.2187 29.3177 45.1578 28.0309C43.8338 29.7014 42.4865 31.3643 41.1158 33.0195C40.3093 33.9805 39.5158 34.9435 38.6712 35.8869C37.8405 36.835 37.0202 37.7913 36.1514 38.7198L45.1509 26.8755Z" fill="url(#paint4_linear)"/>
</g>
</g>
<g style="mix-blend-mode:screen" opacity="0.15">
<g style="mix-blend-mode:screen" opacity="0.15">
<path d="M68.5985 16.5192L89.6732 6.01178L65.7368 37.9878L68.5985 16.5192Z" fill="url(#paint5_linear)"/>
</g>
</g>
<g style="mix-blend-mode:screen" opacity="0.15">
<g style="mix-blend-mode:screen" opacity="0.15">
<path d="M37.7765 38.747L45.2443 30.3586L58.214 44.9275L37.7765 38.747Z" fill="url(#paint6_linear)"/>
</g>
</g>
<path d="M0 50.2858L31.4282 8.72199L33.1061 6.50403L35.0782 3.8892L35.272 3.87091L44.821 15.2337L43.1154 17.5018L30.0272 34.8223L0 50.2858Z" fill="url(#paint7_linear)"/>
<g style="mix-blend-mode:multiply" opacity="0.16">
<g style="mix-blend-mode:multiply" opacity="0.16">
<path d="M31.425 8.71937L35.075 3.88658L35.2689 3.86829L44.8179 15.2311L43.1123 17.4998C40.1459 15.2819 35.146 11.5299 31.425 8.71937Z" fill="url(#paint8_linear)"/>
</g>
</g>
<path d="M51.8447 23.593L35.2683 3.86829L52.7204 2.08307L60.846 11.7521L51.8447 23.593Z" fill="url(#paint9_linear)"/>
<g style="mix-blend-mode:multiply" opacity="0.16">
<g style="mix-blend-mode:multiply" opacity="0.16">
<path d="M0 50.2859L31.4282 8.72283L33.1061 6.50489C33.8156 5.62447 34.5434 4.74405 35.2694 3.87177C33.8996 5.84932 32.5003 7.816 31.0967 9.78272C29.7087 11.7517 28.2974 13.7112 26.8626 15.6612C23.9984 19.5628 21.1817 23.4935 18.2655 27.3775C15.3822 31.2703 12.4427 35.1374 9.5213 39.0132C7.11739 42.1502 4.7109 45.2882 2.3018 48.4269C3.91219 47.6074 5.51997 46.8015 7.152 46.0037L14.7436 42.241C17.2698 40.9768 19.8082 39.7331 22.3586 38.51C24.9061 37.2714 27.4537 36.0327 30.028 34.8258L0 50.2859Z" fill="url(#paint10_linear)"/>
</g>
</g>
<g style="mix-blend-mode:multiply" opacity="0.3">
<g style="mix-blend-mode:multiply" opacity="0.3">
<path d="M51.845 23.593L36.6039 5.46051C36.4767 5.28104 36.3538 5.10767 36.2344 4.92413C36.9742 5.65217 37.6812 6.39715 38.3977 7.14414C39.1047 7.88911 39.8333 8.63408 40.5169 9.3892C41.2213 10.1443 41.9118 10.8974 42.6006 11.6607C43.2747 12.4226 43.9662 13.1757 44.6377 13.9477C45.9852 15.4828 47.3121 17.026 48.6182 18.5774C49.712 19.8506 50.7694 21.1509 51.8303 22.4376C53.1543 20.7671 54.5013 19.1043 55.8714 17.4491C56.6787 16.4881 57.4723 15.525 58.316 14.5816C59.1597 13.6382 59.968 12.6772 60.8359 11.7487L51.845 23.593Z" fill="url(#paint11_linear)"/>
</g>
</g>
<g style="mix-blend-mode:screen" opacity="0.3">
<g style="mix-blend-mode:screen" opacity="0.3">
<path d="M28.3968 33.9494L7.32324 44.4568L31.2585 12.4808C31.2585 12.4808 31.2472 12.8824 28.3968 33.9494Z" fill="url(#paint12_linear)"/>
</g>
</g>
<g style="mix-blend-mode:screen" opacity="0.2">
<g style="mix-blend-mode:screen" opacity="0.2">
<path d="M59.2181 11.7216L51.7468 20.1099L38.7771 5.54108L59.2181 11.7216Z" fill="url(#paint13_linear)"/>
</g>
</g>
<defs>
<linearGradient id="paint0_linear" x1="236.344" y1="443.473" x2="236.344" y2="489.473" gradientUnits="userSpaceOnUse">
<stop stop-color="#00804B"/>
<stop offset="1" stop-color="#131D32"/>
</linearGradient>
<linearGradient id="paint1_linear" x1="107.204" y1="163.176" x2="107.204" y2="176.687" gradientUnits="userSpaceOnUse">
<stop stop-color="#00804B"/>
<stop offset="1" stop-color="#131D32"/>
</linearGradient>
<linearGradient id="paint2_linear" x1="141.251" y1="232.296" x2="141.251" y2="253.612" gradientUnits="userSpaceOnUse">
<stop stop-color="#00804B"/>
<stop offset="1" stop-color="#131D32"/>
</linearGradient>
<linearGradient id="paint3_linear" x1="206.652" y1="443.467" x2="206.652" y2="489.466" gradientUnits="userSpaceOnUse">
<stop stop-color="#00804B"/>
<stop offset="1" stop-color="#131D32"/>
</linearGradient>
<linearGradient id="paint4_linear" x1="137.264" y1="205.163" x2="137.264" y2="223.664" gradientUnits="userSpaceOnUse">
<stop stop-color="#00804B"/>
<stop offset="1" stop-color="#131D32"/>
</linearGradient>
<linearGradient id="paint5_linear" x1="164.091" y1="311.382" x2="164.091" y2="343.07" gradientUnits="userSpaceOnUse">
<stop stop-color="#00804B"/>
<stop offset="1" stop-color="#131D32"/>
</linearGradient>
<linearGradient id="paint6_linear" x1="121.754" y1="169.491" x2="121.754" y2="183.929" gradientUnits="userSpaceOnUse">
<stop stop-color="#00804B"/>
<stop offset="1" stop-color="#131D32"/>
</linearGradient>
<linearGradient id="paint7_linear" x1="184.169" y1="447.132" x2="184.169" y2="493.129" gradientUnits="userSpaceOnUse">
<stop stop-color="#00804B"/>
<stop offset="1" stop-color="#131D32"/>
</linearGradient>
<linearGradient id="paint8_linear" x1="86.456" y1="134.049" x2="86.456" y2="147.558" gradientUnits="userSpaceOnUse">
<stop stop-color="#00804B"/>
<stop offset="1" stop-color="#131D32"/>
</linearGradient>
<linearGradient id="paint9_linear" x1="140.367" y1="207.502" x2="140.367" y2="228.819" gradientUnits="userSpaceOnUse">
<stop stop-color="#00804B"/>
<stop offset="1" stop-color="#131D32"/>
</linearGradient>
<linearGradient id="paint10_linear" x1="144.922" y1="447.127" x2="144.922" y2="493.123" gradientUnits="userSpaceOnUse">
<stop stop-color="#00804B"/>
<stop offset="1" stop-color="#131D32"/>
</linearGradient>
<linearGradient id="paint11_linear" x1="137.322" y1="183.212" x2="137.322" y2="201.713" gradientUnits="userSpaceOnUse">
<stop stop-color="#00804B"/>
<stop offset="1" stop-color="#131D32"/>
</linearGradient>
<linearGradient id="paint12_linear" x1="105.673" y1="317.851" x2="105.673" y2="349.539" gradientUnits="userSpaceOnUse">
<stop stop-color="#00804B"/>
<stop offset="1" stop-color="#131D32"/>
</linearGradient>
<linearGradient id="paint13_linear" x1="122.769" y1="144.674" x2="122.769" y2="159.111" gradientUnits="userSpaceOnUse">
<stop stop-color="#00804B"/>
<stop offset="1" stop-color="#131D32"/>
</linearGradient>
</defs>
</svg>
